<svg id="Layer_1" data-name="Layer 1" xmlns="http://www.w3.org/2000/svg" viewBox="0 0 523.98 254.57"><defs><style>.cls-1{fill:#08d1ff;}</style></defs><title>vck</title><path class="cls-1" d="M407.5,19.36,369.71,57.75s-8.83-4.42-22.57-6.22c-30-3.94-54.05,8.51-69,35.73-15.87,28.86-12.1,69.83,9.24,93.45,20.67,22.88,46.7,28.81,76,20.33,8.07-2.33,14.2-5.45,24.22-12.1,8.57,11.87,19.71,27.05,28.12,38.67-48.75,38-117.52,35.43-162.89-5.19-47.69-42.69-54.71-119.83-15.69-172.29C275.67-1.71,349.81-15.74,407.5,19.36Z"/><path class="cls-1" d="M524,249.09c-32.36-44.08-68.7-92.92-102-138.21,32.25-34,69.53-72.55,100.48-105.16L453.8,5.27c-52.17,47.81-159,160.06-159,160.06,19.65,15.75,33.6,24.1,49.37,19.67a35.58,35.58,0,0,0,14.77-8.73l27.41-26.13,70.33,99Z"/><polygon class="cls-1" points="63.12 5.05 237.41 249.09 171.36 249.09 0 5.46 63.12 5.05"/></svg>